<svg width="674" height="537" viewBox="0 0 674 537" fill="none" xmlns="http://www.w3.org/2000/svg">
<mask id="path-1-inside-1_2124_1549" fill="white">
<path d="M1084.64 156.73C1074.47 145.602 1062.31 136.109 1049.62 127.445C1038.85 120.088 1027.27 113.711 1015.22 108.161C960.008 82.7217 897.451 71.0469 834.56 71.8264C783.589 72.459 732.781 80.6564 683.749 94.9475C654.864 66.8632 626.5 38.3343 597.705 10.1722C560.634 -26.0975 522.824 -61.8215 482.342 -94.9637C440.785 -128.988 396.519 -160.702 348.29 -186.765C322.169 -200.876 294.854 -213.467 266.53 -223.776C252.134 -229.014 237.323 -233.454 222.072 -236.484C204.562 -239.966 186.382 -242.266 168.23 -241.718C158.247 -241.418 148.183 -240.384 138.286 -238.816C130.812 -237.634 122.815 -231.729 118.781 -225.999C114.746 -220.27 112.453 -211.459 114.334 -204.761C116.285 -197.809 120.508 -191.101 127.54 -187.543C134.835 -183.856 142.2 -183.097 150.672 -184.437C152.33 -184.701 153.989 -184.935 155.647 -185.147C168.256 -186.114 180.838 -185.697 193.258 -184.207C215.236 -180.684 236.319 -174.126 256.615 -166.153C298.566 -148.836 337.915 -126.79 374.733 -101.937C384.137 -95.5903 393.372 -89.0394 402.476 -82.3441C440.772 -53.6463 476.497 -22.258 510.978 10.1572C546.597 43.6404 580.939 78.2267 615.677 112.465C617.214 113.98 618.75 115.489 620.287 117.004C597.098 126.204 574.401 136.395 552.225 147.733C522.909 162.721 494.554 179.338 467.043 197.044C465.516 198.027 463.997 199.013 462.478 200C440.472 177.728 416.581 157.115 390.605 138.458C351.785 110.577 307.374 88.4717 259.537 75.3261C209.456 61.5705 155.816 57.9435 103.216 66.5719C91.1357 68.5512 78.997 71.11 67.4268 75.1353C51.855 80.5524 36.3722 87.3908 25.0287 99.1493C15.6956 108.82 8.19366 119.457 4.28641 131.845C1.04789 142.1 -0.531781 152.762 0.159897 163.261C0.898948 174.441 2.39337 185.123 6.1389 195.693C9.84513 206.145 14.1623 216.385 20.0895 225.897C30.9617 243.338 44.748 259.623 60.4864 273.564C92.0251 301.496 131.2 322.054 173.791 333.495C216.725 345.023 262.825 347.147 307.696 339.335C357.947 330.59 402.751 306.502 444.344 279.343C446.171 278.148 447.984 276.946 449.804 275.748C454.099 280.879 458.312 286.068 462.443 291.311C492.241 330.061 517.622 371.693 538.028 415.454C543.281 426.715 548.194 438.123 552.791 449.643C561.069 471.204 568.206 493.156 574.13 515.436C576.004 522.491 580.54 528.848 587.336 532.654C593.637 536.178 603.026 537.775 610.468 535.76C618.192 533.669 625.75 529.516 629.974 522.943C634.096 516.513 636.344 508.925 634.42 501.704C621.551 453.304 603.189 406.098 579.877 361.437C557.883 319.308 531.066 279.559 500.537 242.36C539.846 217.453 580.694 194.679 623.756 175.833C637.077 170.002 650.585 164.575 664.269 159.553C683.492 177.769 703.059 195.683 723.227 213.037C761.584 246.04 802.194 277.213 845.929 304.284C867.728 317.771 890.295 330.872 914.42 340.844C929.891 347.233 945.594 353.083 962.378 356.359C971.451 358.131 980.743 359.475 990.061 360.041C999.559 360.617 1008.89 359.842 1018.41 358.761C1051.12 355.039 1081.46 336.878 1099.64 311.441C1107.25 300.803 1113.14 288.633 1116.38 276.403C1118.39 268.829 1120.04 261.088 1120.71 253.361C1121.38 245.71 1120.87 238.196 1120.23 230.606C1117.92 202.854 1103.59 177.506 1084.63 156.747L1084.64 156.73ZM281.454 286.962C261.906 288.652 242.312 288.213 223.063 285.813C203.335 282.727 184.139 277.604 165.864 270.544C148.832 263.338 132.773 254.452 118.063 243.937C105.064 233.919 93.327 222.624 83.1859 210.147C76.5219 201.215 70.7257 191.804 66.3622 181.696C64.0458 175.062 62.3418 168.248 61.4651 161.281C61.3495 157.126 61.5756 152.967 62.2038 148.82C62.8609 146.554 63.6582 144.319 64.6055 142.13C65.5866 140.562 66.6488 139.045 67.797 137.571C69.2632 136.184 70.7976 134.874 72.4107 133.631C75.9294 131.594 79.6079 129.841 83.4059 128.307C97.9665 123.601 113.367 120.882 128.551 119.111C152.148 116.991 175.8 117.593 199.035 120.538C225.698 124.612 251.579 131.685 276.207 141.302C306.075 153.77 333.801 169.917 359.341 188.496C377.839 202.472 395.152 217.674 411.398 233.788C386.638 249.763 361.017 264.739 333.106 275.318C316.355 280.987 299.021 284.849 281.467 286.965L281.454 286.962ZM1044.75 287.211C1042 289.942 1039.05 292.489 1035.9 294.831C1032.22 297.013 1028.38 298.93 1024.4 300.579C1019.51 302.072 1014.51 303.176 1009.44 303.913C1001.84 304.384 994.281 304.116 986.793 303.288C972.861 300.953 959.429 296.913 946.494 291.909C928.969 284.495 912.402 275.404 896.189 265.952C879.905 256.465 864.07 246.361 848.664 235.77C841.1 230.571 833.641 225.246 826.267 219.827C792.986 194.906 761.627 167.986 731.344 140.112C750.507 135.758 769.895 132.395 789.434 130.17C824.291 126.841 859.355 127.091 893.691 131.58C920.799 135.719 947.225 142.565 972.277 152.348C988.777 159.304 1004.52 167.628 1018.82 177.756C1027.84 184.761 1036.09 192.525 1043.25 201.146C1048.03 207.716 1052.14 214.69 1055.39 222.045C1057.43 228.066 1058.81 234.261 1059.56 240.576C1059.78 247.093 1059.34 253.634 1058.23 260.128C1056.81 265.583 1054.9 270.929 1052.47 276.117C1050.21 279.984 1047.64 283.687 1044.74 287.206L1044.75 287.211Z"/>
</mask>
<path d="M1084.64 156.73C1074.47 145.602 1062.31 136.109 1049.62 127.445C1038.85 120.088 1027.27 113.711 1015.22 108.161C960.008 82.7217 897.451 71.0469 834.56 71.8264C783.589 72.459 732.781 80.6564 683.749 94.9475C654.864 66.8632 626.5 38.3343 597.705 10.1722C560.634 -26.0975 522.824 -61.8215 482.342 -94.9637C440.785 -128.988 396.519 -160.702 348.29 -186.765C322.169 -200.876 294.854 -213.467 266.53 -223.776C252.134 -229.014 237.323 -233.454 222.072 -236.484C204.562 -239.966 186.382 -242.266 168.23 -241.718C158.247 -241.418 148.183 -240.384 138.286 -238.816C130.812 -237.634 122.815 -231.729 118.781 -225.999C114.746 -220.27 112.453 -211.459 114.334 -204.761C116.285 -197.809 120.508 -191.101 127.54 -187.543C134.835 -183.856 142.2 -183.097 150.672 -184.437C152.33 -184.701 153.989 -184.935 155.647 -185.147C168.256 -186.114 180.838 -185.697 193.258 -184.207C215.236 -180.684 236.319 -174.126 256.615 -166.153C298.566 -148.836 337.915 -126.79 374.733 -101.937C384.137 -95.5903 393.372 -89.0394 402.476 -82.3441C440.772 -53.6463 476.497 -22.258 510.978 10.1572C546.597 43.6404 580.939 78.2267 615.677 112.465C617.214 113.98 618.75 115.489 620.287 117.004C597.098 126.204 574.401 136.395 552.225 147.733C522.909 162.721 494.554 179.338 467.043 197.044C465.516 198.027 463.997 199.013 462.478 200C440.472 177.728 416.581 157.115 390.605 138.458C351.785 110.577 307.374 88.4717 259.537 75.3261C209.456 61.5705 155.816 57.9435 103.216 66.5719C91.1357 68.5512 78.997 71.11 67.4268 75.1353C51.855 80.5524 36.3722 87.3908 25.0287 99.1493C15.6956 108.82 8.19366 119.457 4.28641 131.845C1.04789 142.1 -0.531781 152.762 0.159897 163.261C0.898948 174.441 2.39337 185.123 6.1389 195.693C9.84513 206.145 14.1623 216.385 20.0895 225.897C30.9617 243.338 44.748 259.623 60.4864 273.564C92.0251 301.496 131.2 322.054 173.791 333.495C216.725 345.023 262.825 347.147 307.696 339.335C357.947 330.59 402.751 306.502 444.344 279.343C446.171 278.148 447.984 276.946 449.804 275.748C454.099 280.879 458.312 286.068 462.443 291.311C492.241 330.061 517.622 371.693 538.028 415.454C543.281 426.715 548.194 438.123 552.791 449.643C561.069 471.204 568.206 493.156 574.13 515.436C576.004 522.491 580.54 528.848 587.336 532.654C593.637 536.178 603.026 537.775 610.468 535.76C618.192 533.669 625.75 529.516 629.974 522.943C634.096 516.513 636.344 508.925 634.42 501.704C621.551 453.304 603.189 406.098 579.877 361.437C557.883 319.308 531.066 279.559 500.537 242.36C539.846 217.453 580.694 194.679 623.756 175.833C637.077 170.002 650.585 164.575 664.269 159.553C683.492 177.769 703.059 195.683 723.227 213.037C761.584 246.04 802.194 277.213 845.929 304.284C867.728 317.771 890.295 330.872 914.42 340.844C929.891 347.233 945.594 353.083 962.378 356.359C971.451 358.131 980.743 359.475 990.061 360.041C999.559 360.617 1008.89 359.842 1018.41 358.761C1051.12 355.039 1081.46 336.878 1099.64 311.441C1107.25 300.803 1113.14 288.633 1116.38 276.403C1118.39 268.829 1120.04 261.088 1120.71 253.361C1121.38 245.71 1120.87 238.196 1120.23 230.606C1117.92 202.854 1103.59 177.506 1084.63 156.747L1084.64 156.73ZM281.454 286.962C261.906 288.652 242.312 288.213 223.063 285.813C203.335 282.727 184.139 277.604 165.864 270.544C148.832 263.338 132.773 254.452 118.063 243.937C105.064 233.919 93.327 222.624 83.1859 210.147C76.5219 201.215 70.7257 191.804 66.3622 181.696C64.0458 175.062 62.3418 168.248 61.4651 161.281C61.3495 157.126 61.5756 152.967 62.2038 148.82C62.8609 146.554 63.6582 144.319 64.6055 142.13C65.5866 140.562 66.6488 139.045 67.797 137.571C69.2632 136.184 70.7976 134.874 72.4107 133.631C75.9294 131.594 79.6079 129.841 83.4059 128.307C97.9665 123.601 113.367 120.882 128.551 119.111C152.148 116.991 175.8 117.593 199.035 120.538C225.698 124.612 251.579 131.685 276.207 141.302C306.075 153.77 333.801 169.917 359.341 188.496C377.839 202.472 395.152 217.674 411.398 233.788C386.638 249.763 361.017 264.739 333.106 275.318C316.355 280.987 299.021 284.849 281.467 286.965L281.454 286.962ZM1044.75 287.211C1042 289.942 1039.05 292.489 1035.9 294.831C1032.22 297.013 1028.38 298.93 1024.4 300.579C1019.51 302.072 1014.51 303.176 1009.44 303.913C1001.84 304.384 994.281 304.116 986.793 303.288C972.861 300.953 959.429 296.913 946.494 291.909C928.969 284.495 912.402 275.404 896.189 265.952C879.905 256.465 864.07 246.361 848.664 235.77C841.1 230.571 833.641 225.246 826.267 219.827C792.986 194.906 761.627 167.986 731.344 140.112C750.507 135.758 769.895 132.395 789.434 130.17C824.291 126.841 859.355 127.091 893.691 131.58C920.799 135.719 947.225 142.565 972.277 152.348C988.777 159.304 1004.52 167.628 1018.82 177.756C1027.84 184.761 1036.09 192.525 1043.25 201.146C1048.03 207.716 1052.14 214.69 1055.39 222.045C1057.43 228.066 1058.81 234.261 1059.56 240.576C1059.78 247.093 1059.34 253.634 1058.23 260.128C1056.81 265.583 1054.9 270.929 1052.47 276.117C1050.21 279.984 1047.64 283.687 1044.74 287.206L1044.75 287.211Z" stroke="#F3FF85" stroke-width="2" mask="url(#path-1-inside-1_2124_1549)"/>
</svg>
