<svg width="1245" height="790" viewBox="0 0 1245 790" fill="none" xmlns="http://www.w3.org/2000/svg">
<g clip-path="url(#clip0_2822_923)">
<mask id="path-1-inside-1_2822_923" fill="white">
<path d="M1166.68 296.73C1156.51 285.602 1144.35 276.109 1131.66 267.445C1120.89 260.088 1109.31 253.711 1097.26 248.161C1042.05 222.722 979.49 211.047 916.599 211.826C865.628 212.459 814.82 220.656 765.788 234.948C736.903 206.863 708.539 178.334 679.744 150.172C642.673 113.903 604.863 78.1785 564.382 45.0363C522.824 11.0124 478.559 -20.7015 430.329 -46.765C404.209 -60.8757 376.893 -73.4673 348.569 -83.7758C334.173 -89.0139 319.362 -93.454 304.111 -96.484C286.601 -99.9662 268.422 -102.266 250.269 -101.718C240.286 -101.418 230.223 -100.384 220.325 -98.8162C212.851 -97.6344 204.854 -91.729 200.82 -85.9995C196.785 -80.27 194.492 -71.4594 196.373 -64.7607C198.324 -57.8091 202.547 -51.1005 209.579 -47.5426C216.874 -43.8561 224.239 -43.0967 232.711 -44.4371C234.369 -44.7005 236.028 -44.9353 237.686 -45.147C250.295 -46.1142 262.877 -45.6966 275.297 -44.207C297.275 -40.6841 318.358 -34.1263 338.654 -26.1535C380.605 -8.83576 419.954 13.21 456.772 38.0632C466.176 44.4097 475.411 50.9606 484.515 57.6559C522.811 86.3537 558.536 117.742 593.017 150.157C628.636 183.64 662.978 218.227 697.716 252.465C699.253 253.98 700.789 255.489 702.327 257.004C679.137 266.204 656.44 276.395 634.264 287.733C604.948 302.721 576.593 319.338 549.082 337.044C547.555 338.027 546.036 339.013 544.517 340C522.512 317.728 498.62 297.115 472.644 278.458C433.824 250.577 389.413 228.472 341.576 215.326C291.495 201.571 237.855 197.943 185.255 206.572C173.175 208.551 161.036 211.11 149.466 215.135C133.894 220.552 118.411 227.391 107.068 239.149C97.7347 248.82 90.2327 259.457 86.3255 271.845C83.087 282.1 81.5073 292.762 82.199 303.261C82.938 314.441 84.4324 325.123 88.178 335.693C91.8842 346.145 96.2013 356.385 102.129 365.897C113.001 383.338 126.787 399.623 142.525 413.564C174.064 441.496 213.239 462.054 255.83 473.495C298.764 485.023 344.864 487.147 389.735 479.335C439.986 470.59 484.79 446.502 526.383 419.343C528.21 418.148 530.023 416.946 531.843 415.748C536.138 420.879 540.351 426.068 544.482 431.311C574.28 470.061 599.661 511.693 620.067 555.454C625.321 566.715 630.234 578.123 634.83 589.643C643.108 611.204 650.245 633.156 656.17 655.436C658.043 662.491 662.579 668.848 669.376 672.654C675.677 676.178 685.065 677.775 692.507 675.76C700.231 673.669 707.79 669.516 712.013 662.943C716.135 656.513 718.383 648.925 716.46 641.704C703.59 593.304 685.228 546.098 661.916 501.437C639.922 459.308 613.105 419.559 582.576 382.36C621.885 357.453 662.733 334.679 705.795 315.833C719.116 310.002 732.624 304.575 746.308 299.553C765.531 317.769 785.098 335.683 805.266 353.037C843.623 386.04 884.233 417.213 927.968 444.284C949.767 457.771 972.334 470.872 996.459 480.844C1011.93 487.233 1027.63 493.083 1044.42 496.359C1053.49 498.131 1062.78 499.475 1072.1 500.041C1081.6 500.617 1090.93 499.842 1100.45 498.761C1133.16 495.039 1163.5 476.878 1181.68 451.441C1189.29 440.803 1195.18 428.633 1198.42 416.403C1200.43 408.829 1202.08 401.088 1202.75 393.361C1203.42 385.71 1202.91 378.196 1202.27 370.606C1199.96 342.854 1185.63 317.506 1166.67 296.747L1166.68 296.73ZM363.493 426.962C343.945 428.652 324.351 428.213 305.102 425.813C285.374 422.727 266.178 417.604 247.904 410.544C230.871 403.338 214.812 394.452 200.102 383.937C187.103 373.919 175.366 362.624 165.225 350.147C158.561 341.215 152.765 331.804 148.401 321.696C146.085 315.062 144.381 308.248 143.504 301.281C143.389 297.126 143.615 292.967 144.243 288.82C144.9 286.554 145.697 284.319 146.645 282.13C147.626 280.562 148.688 279.045 149.836 277.571C151.302 276.184 152.837 274.874 154.45 273.631C157.968 271.594 161.647 269.841 165.445 268.307C180.006 263.601 195.406 260.882 210.59 259.111C234.187 256.991 257.84 257.593 281.074 260.538C307.737 264.612 333.618 271.685 358.246 281.302C388.114 293.77 415.84 309.917 441.38 328.496C459.878 342.472 477.191 357.674 493.437 373.788C468.677 389.763 443.056 404.739 415.145 415.318C398.394 420.987 381.06 424.849 363.506 426.965L363.493 426.962ZM1126.79 427.211C1124.04 429.942 1121.09 432.489 1117.94 434.831C1114.26 437.013 1110.42 438.93 1106.44 440.579C1101.55 442.072 1096.55 443.176 1091.48 443.913C1083.88 444.384 1076.32 444.116 1068.83 443.288C1054.9 440.953 1041.47 436.913 1028.53 431.909C1011.01 424.495 994.441 415.404 978.228 405.952C961.944 396.465 946.109 386.361 930.703 375.77C923.139 370.571 915.68 365.246 908.306 359.827C875.025 334.906 843.666 307.986 813.383 280.112C832.546 275.758 851.934 272.395 871.473 270.17C906.33 266.841 941.394 267.091 975.73 271.58C1002.84 275.719 1029.26 282.565 1054.32 292.348C1070.82 299.304 1086.56 307.628 1100.86 317.756C1109.88 324.761 1118.13 332.525 1125.28 341.146C1130.07 347.716 1134.18 354.69 1137.43 362.045C1139.47 368.066 1140.85 374.261 1141.6 380.576C1141.82 387.093 1141.38 393.634 1140.27 400.128C1138.84 405.583 1136.94 410.929 1134.51 416.117C1132.24 419.984 1129.68 423.687 1126.78 427.206L1126.79 427.211Z"/>
</mask>
<path d="M1166.68 296.73C1156.51 285.602 1144.35 276.109 1131.66 267.445C1120.89 260.088 1109.31 253.711 1097.26 248.161C1042.05 222.722 979.49 211.047 916.599 211.826C865.628 212.459 814.82 220.656 765.788 234.948C736.903 206.863 708.539 178.334 679.744 150.172C642.673 113.903 604.863 78.1785 564.382 45.0363C522.824 11.0124 478.559 -20.7015 430.329 -46.765C404.209 -60.8757 376.893 -73.4673 348.569 -83.7758C334.173 -89.0139 319.362 -93.454 304.111 -96.484C286.601 -99.9662 268.422 -102.266 250.269 -101.718C240.286 -101.418 230.223 -100.384 220.325 -98.8162C212.851 -97.6344 204.854 -91.729 200.82 -85.9995C196.785 -80.27 194.492 -71.4594 196.373 -64.7607C198.324 -57.8091 202.547 -51.1005 209.579 -47.5426C216.874 -43.8561 224.239 -43.0967 232.711 -44.4371C234.369 -44.7005 236.028 -44.9353 237.686 -45.147C250.295 -46.1142 262.877 -45.6966 275.297 -44.207C297.275 -40.6841 318.358 -34.1263 338.654 -26.1535C380.605 -8.83576 419.954 13.21 456.772 38.0632C466.176 44.4097 475.411 50.9606 484.515 57.6559C522.811 86.3537 558.536 117.742 593.017 150.157C628.636 183.64 662.978 218.227 697.716 252.465C699.253 253.98 700.789 255.489 702.327 257.004C679.137 266.204 656.44 276.395 634.264 287.733C604.948 302.721 576.593 319.338 549.082 337.044C547.555 338.027 546.036 339.013 544.517 340C522.512 317.728 498.62 297.115 472.644 278.458C433.824 250.577 389.413 228.472 341.576 215.326C291.495 201.571 237.855 197.943 185.255 206.572C173.175 208.551 161.036 211.11 149.466 215.135C133.894 220.552 118.411 227.391 107.068 239.149C97.7347 248.82 90.2327 259.457 86.3255 271.845C83.087 282.1 81.5073 292.762 82.199 303.261C82.938 314.441 84.4324 325.123 88.178 335.693C91.8842 346.145 96.2013 356.385 102.129 365.897C113.001 383.338 126.787 399.623 142.525 413.564C174.064 441.496 213.239 462.054 255.83 473.495C298.764 485.023 344.864 487.147 389.735 479.335C439.986 470.59 484.79 446.502 526.383 419.343C528.21 418.148 530.023 416.946 531.843 415.748C536.138 420.879 540.351 426.068 544.482 431.311C574.28 470.061 599.661 511.693 620.067 555.454C625.321 566.715 630.234 578.123 634.83 589.643C643.108 611.204 650.245 633.156 656.17 655.436C658.043 662.491 662.579 668.848 669.376 672.654C675.677 676.178 685.065 677.775 692.507 675.76C700.231 673.669 707.79 669.516 712.013 662.943C716.135 656.513 718.383 648.925 716.46 641.704C703.59 593.304 685.228 546.098 661.916 501.437C639.922 459.308 613.105 419.559 582.576 382.36C621.885 357.453 662.733 334.679 705.795 315.833C719.116 310.002 732.624 304.575 746.308 299.553C765.531 317.769 785.098 335.683 805.266 353.037C843.623 386.04 884.233 417.213 927.968 444.284C949.767 457.771 972.334 470.872 996.459 480.844C1011.93 487.233 1027.63 493.083 1044.42 496.359C1053.49 498.131 1062.78 499.475 1072.1 500.041C1081.6 500.617 1090.93 499.842 1100.45 498.761C1133.16 495.039 1163.5 476.878 1181.68 451.441C1189.29 440.803 1195.18 428.633 1198.42 416.403C1200.43 408.829 1202.08 401.088 1202.75 393.361C1203.42 385.71 1202.91 378.196 1202.27 370.606C1199.96 342.854 1185.63 317.506 1166.67 296.747L1166.68 296.73ZM363.493 426.962C343.945 428.652 324.351 428.213 305.102 425.813C285.374 422.727 266.178 417.604 247.904 410.544C230.871 403.338 214.812 394.452 200.102 383.937C187.103 373.919 175.366 362.624 165.225 350.147C158.561 341.215 152.765 331.804 148.401 321.696C146.085 315.062 144.381 308.248 143.504 301.281C143.389 297.126 143.615 292.967 144.243 288.82C144.9 286.554 145.697 284.319 146.645 282.13C147.626 280.562 148.688 279.045 149.836 277.571C151.302 276.184 152.837 274.874 154.45 273.631C157.968 271.594 161.647 269.841 165.445 268.307C180.006 263.601 195.406 260.882 210.59 259.111C234.187 256.991 257.84 257.593 281.074 260.538C307.737 264.612 333.618 271.685 358.246 281.302C388.114 293.77 415.84 309.917 441.38 328.496C459.878 342.472 477.191 357.674 493.437 373.788C468.677 389.763 443.056 404.739 415.145 415.318C398.394 420.987 381.06 424.849 363.506 426.965L363.493 426.962ZM1126.79 427.211C1124.04 429.942 1121.09 432.489 1117.94 434.831C1114.26 437.013 1110.42 438.93 1106.44 440.579C1101.55 442.072 1096.55 443.176 1091.48 443.913C1083.88 444.384 1076.32 444.116 1068.83 443.288C1054.9 440.953 1041.47 436.913 1028.53 431.909C1011.01 424.495 994.441 415.404 978.228 405.952C961.944 396.465 946.109 386.361 930.703 375.77C923.139 370.571 915.68 365.246 908.306 359.827C875.025 334.906 843.666 307.986 813.383 280.112C832.546 275.758 851.934 272.395 871.473 270.17C906.33 266.841 941.394 267.091 975.73 271.58C1002.84 275.719 1029.26 282.565 1054.32 292.348C1070.82 299.304 1086.56 307.628 1100.86 317.756C1109.88 324.761 1118.13 332.525 1125.28 341.146C1130.07 347.716 1134.18 354.69 1137.43 362.045C1139.47 368.066 1140.85 374.261 1141.6 380.576C1141.82 387.093 1141.38 393.634 1140.27 400.128C1138.84 405.583 1136.94 410.929 1134.51 416.117C1132.24 419.984 1129.68 423.687 1126.78 427.206L1126.79 427.211Z" stroke="#F3FF85" stroke-width="2" mask="url(#path-1-inside-1_2822_923)"/>
</g>
<defs>
<clipPath id="clip0_2822_923">
<rect width="1244.15" height="790" fill="white"/>
</clipPath>
</defs>
</svg>
