<svg width="64" height="64" viewBox="0 0 64 64" fill="none" xmlns="http://www.w3.org/2000/svg">
<path fill-rule="evenodd" clip-rule="evenodd" d="M31.9969 64C31.6031 64 31.15 63.9875 30.6406 63.9688C30.1311 63.9469 29.6749 63.9187 29.2748 63.8844C28.4529 63.8156 27.7122 63.4812 27.1371 62.9594C26.562 62.4375 26.1588 61.7343 26.0088 60.9217L25.515 58.2591C25.4713 58.0154 25.365 57.8029 25.2119 57.6404C25.0587 57.4747 24.8556 57.3528 24.6149 57.2903C23.4804 56.9903 22.3803 56.6153 21.3209 56.1778C20.2457 55.7309 19.2019 55.2153 18.2018 54.6308C17.983 54.5027 17.7518 54.4433 17.5268 54.4527C17.3049 54.4621 17.083 54.5371 16.8767 54.6777L14.9827 55.9809C14.2796 56.4653 13.4701 56.6747 12.6794 56.6216C11.8856 56.5684 11.1105 56.2497 10.4792 55.6777C9.97914 55.2246 9.48845 54.7464 9.00088 54.2433C8.54146 53.7683 8.07583 53.2557 7.61323 52.7088C7.07567 52.0744 6.78187 51.315 6.74442 50.5431C6.70379 49.7712 6.91631 48.9868 7.38824 48.3023L7.39136 48.2992L7.38824 48.2961L8.65708 46.4522C8.79772 46.246 8.87273 46.0241 8.8821 45.8022C8.89148 45.5772 8.8321 45.3459 8.70396 45.1272C8.12265 44.124 7.60385 43.0833 7.15693 42.0083C6.71626 40.9458 6.34437 39.8457 6.04434 38.7144C5.98183 38.4737 5.85682 38.2675 5.6943 38.1144C5.53179 37.9643 5.31927 37.8581 5.07549 37.8112L3.03777 37.4362C2.21273 37.2831 1.49698 36.8674 0.97509 36.2768C0.453167 35.6892 0.125007 34.9329 0.071882 34.0954C0.0531306 33.7829 0.0343784 33.436 0.0218771 33.0453C0.00937592 32.6109 0 32.2609 0 31.9953C0 31.7296 0.00625081 31.3796 0.0218771 30.9484C0.0343784 30.5608 0.0500047 30.2108 0.071882 29.8983C0.128138 29.0576 0.456296 28.2982 0.978211 27.7107C1.49701 27.1263 2.21273 26.7106 3.04089 26.5575L5.07861 26.1794C5.32239 26.1356 5.5349 26.0293 5.69742 25.8762L5.7443 25.8356C5.88494 25.6918 5.98808 25.5012 6.04746 25.2793C6.34749 24.1449 6.7194 23.0448 7.16005 21.9823C7.60697 20.9072 8.12262 19.8666 8.70708 18.8634C8.83522 18.6446 8.8946 18.4134 8.88523 18.1884C8.87585 17.9665 8.80084 17.7446 8.6602 17.5383C8.64458 17.5165 8.62895 17.4915 8.61645 17.4696L7.38505 15.6976L7.38193 15.7008C6.91001 15.0164 6.69748 14.2289 6.73811 13.4538C6.77874 12.6787 7.06939 11.9162 7.6038 11.2881C8.04446 10.7693 8.51012 10.2567 8.99457 9.75672C9.48212 9.25357 9.97595 8.77539 10.4729 8.32225C11.1011 7.75035 11.8761 7.43157 12.6731 7.37844C13.4638 7.32532 14.2764 7.5347 14.9796 8.0191L16.8735 9.32228C17.0798 9.46291 17.3017 9.53792 17.5236 9.54729C17.7486 9.55667 17.9799 9.49729 18.1986 9.36916C19.2019 8.78788 20.2426 8.2691 21.3177 7.8222C22.3771 7.38156 23.4803 7.00968 24.6117 6.70967C24.8524 6.64716 25.0555 6.52528 25.2087 6.35965C25.3618 6.19715 25.4649 5.98463 25.5118 5.74087L26.0056 3.07826C26.1556 2.26574 26.5588 1.56258 27.1339 1.04064C27.709 0.51874 28.4527 0.184356 29.2716 0.115632C29.6717 0.0812553 30.1248 0.0531278 30.6311 0.0312515C31.1437 0.00937526 31.5968 0 31.9937 0C32.3906 0 32.8438 0.0125002 33.3563 0.0312515C33.8626 0.053127 34.3158 0.0812545 34.7158 0.115632C35.5378 0.184385 36.2785 0.51878 36.8536 1.04064C37.4286 1.56253 37.8318 2.26566 37.985 3.07826L38.4788 5.74087C38.5225 5.98463 38.6288 6.19714 38.7819 6.35965C38.9351 6.52528 39.1382 6.64717 39.3788 6.70967C40.5134 7.00968 41.6166 7.3847 42.676 7.82532C43.7512 8.27222 44.7919 8.78785 45.7951 9.36916C46.0138 9.49729 46.2451 9.55667 46.4701 9.54729C46.692 9.53792 46.9139 9.46291 47.1202 9.32228L49.0141 8.0191C49.7173 7.5347 50.5268 7.32531 51.3175 7.37844C52.1113 7.43157 52.8895 7.75034 53.5177 8.32225C54.0178 8.7754 54.5116 9.2567 54.996 9.75672C55.4554 10.2317 55.9179 10.7412 56.3805 11.2881C56.9181 11.9225 57.2119 12.6819 57.2525 13.4538C57.2931 14.2288 57.0806 15.0132 56.6149 15.6945L56.5836 15.7352L55.3398 17.5415C55.1991 17.7477 55.1241 17.9696 55.1147 18.1915C55.1054 18.4165 55.1648 18.6478 55.2929 18.8666C55.8742 19.8697 56.393 20.9104 56.8399 21.9885C57.2806 23.048 57.6525 24.148 57.9525 25.2825C58.0181 25.5262 58.1369 25.7325 58.2994 25.8794L58.3025 25.8825L58.3057 25.8794C58.4682 26.0325 58.6807 26.1356 58.9245 26.1825L60.9591 26.5607C61.7873 26.7138 62.503 27.1294 63.0218 27.7138C63.0468 27.742 63.0686 27.7701 63.0905 27.7982C63.5718 28.3732 63.875 29.1014 63.9281 29.9014C63.9469 30.2108 63.9656 30.5608 63.9781 30.9484C63.9906 31.3828 64 31.7328 64 31.9984C64 32.2641 63.9938 32.6141 63.9781 33.0485C63.9656 33.436 63.95 33.786 63.9281 34.0954C63.875 34.9361 63.5468 35.6955 63.0249 36.283C62.5061 36.8674 61.7904 37.2831 60.9622 37.4362L58.9276 37.8112C58.6839 37.855 58.4713 37.9612 58.3088 38.1144C58.1432 38.2675 58.0213 38.4706 57.9588 38.7144C57.6588 39.8489 57.2868 40.9489 56.8462 42.0083C56.3993 43.0834 55.8836 44.1271 55.2992 45.1303C55.171 45.3491 55.1148 45.5803 55.121 45.8054C55.1304 46.0272 55.2054 46.2491 55.346 46.4554L56.6149 48.2992L56.618 48.3055C57.0868 48.9868 57.2962 49.7712 57.2556 50.5462C57.2149 51.3213 56.9243 52.0838 56.3899 52.7119C56.368 52.7369 56.3461 52.7619 56.3243 52.7838C55.8805 53.3026 55.4366 53.7901 54.9992 54.2433C54.5147 54.7464 54.0209 55.2246 53.5209 55.6777C52.8927 56.2496 52.1145 56.5684 51.3206 56.6215C50.5299 56.6747 49.7174 56.4653 49.0142 55.9809L47.1202 54.6777C46.914 54.5371 46.6921 54.4589 46.4702 54.4527C46.2451 54.4433 46.0139 54.5027 45.7951 54.6308C44.795 55.2121 43.7511 55.7309 42.6761 56.1746C41.6135 56.6153 40.5134 56.9872 39.3758 57.2903C39.1351 57.3528 38.932 57.4747 38.7788 57.6403C38.6288 57.8028 38.5226 58.0153 38.4757 58.2591L37.9819 60.9217C37.8319 61.7342 37.4256 62.4374 36.8536 62.9593C36.2754 63.4812 35.5348 63.8156 34.7159 63.8843C34.319 63.9187 33.8689 63.9468 33.3657 63.9656C32.8563 63.9875 32.4001 64 31.9969 64ZM31.9969 15.8136C27.5278 15.8136 23.4801 17.6262 20.5518 20.5545C17.6234 23.4828 15.8107 27.5299 15.8107 31.9991C15.8107 36.4683 17.6234 40.5155 20.5518 43.4436C23.4803 46.3719 27.5275 48.1845 31.9969 48.1845C36.4663 48.1845 40.5138 46.3719 43.442 43.4436C46.3705 40.5153 48.1831 36.4683 48.1831 31.9991C48.1831 27.5299 46.3705 23.4826 43.442 20.5545C40.5136 17.6262 36.4663 15.8136 31.9969 15.8136ZM41.7451 22.2515C39.2511 19.7576 35.8039 18.2138 31.9969 18.2138C28.19 18.2138 24.7431 19.7576 22.2488 22.2515C19.7548 24.7453 18.2109 28.1924 18.2109 31.9991C18.2109 35.8059 19.7548 39.2526 22.2488 41.7468C24.7428 44.2407 28.19 45.7845 31.9969 45.7845C35.8039 45.7845 39.2508 44.2407 41.7451 41.7468C44.2391 39.2529 45.783 35.8059 45.783 31.9991C45.783 28.1924 44.2391 24.7457 41.7451 22.2515ZM30.7344 61.5782C31.0938 61.5938 31.5126 61.6001 31.997 61.6001C32.4783 61.6001 32.9002 61.5907 33.2658 61.5751H33.269C33.6346 61.5595 34.0566 61.5313 34.5222 61.4907C34.8097 61.4657 35.0629 61.3563 35.2535 61.1844C35.4442 61.0094 35.5817 60.7688 35.6348 60.4875L36.1286 57.8249C36.2599 57.1218 36.5724 56.4999 37.0318 56.0061C37.4881 55.5155 38.0819 55.1561 38.7726 54.9717C39.7946 54.6998 40.7947 54.3622 41.7636 53.9591C42.7449 53.5529 43.695 53.0809 44.6014 52.5559C45.2171 52.1997 45.889 52.034 46.5609 52.059C47.236 52.084 47.8986 52.2997 48.4861 52.7059L50.38 54.0091C50.6207 54.1748 50.8957 54.2466 51.1676 54.2279C51.4332 54.2091 51.6958 54.0998 51.9145 53.9029C52.3958 53.4653 52.8521 53.0215 53.2897 52.5715C53.7273 52.1184 54.1367 51.6715 54.5148 51.2308C54.5335 51.2058 54.5492 51.1839 54.571 51.1621C54.7586 50.9402 54.8617 50.6808 54.8742 50.4214C54.8867 50.162 54.8117 49.8901 54.6492 49.6526L53.374 47.8119C52.9708 47.2244 52.7521 46.5618 52.7271 45.8868C52.7021 45.2149 52.8677 44.543 53.224 43.9274C53.7522 43.0211 54.221 42.071 54.6304 41.0866C55.0304 40.1178 55.3711 39.1209 55.6398 38.1021C55.8242 37.4114 56.1836 36.8145 56.6743 36.3613C57.1681 35.9051 57.79 35.5894 58.4932 35.4582L60.5278 35.0831C60.8091 35.03 61.0529 34.8894 61.231 34.6894C61.4061 34.4925 61.5154 34.2331 61.5342 33.9456C61.5561 33.5862 61.5748 33.2612 61.5842 32.9737C61.5904 32.7362 61.5967 32.4112 61.5967 31.9986C61.5967 31.586 61.5936 31.2611 61.5842 31.0235C61.5748 30.736 61.5592 30.411 61.5342 30.0516C61.5154 29.7829 61.4217 29.5422 61.2717 29.3516L61.2342 29.3078C61.056 29.1078 60.8123 28.9672 60.531 28.9141L58.4932 28.5359C57.7901 28.4047 57.1682 28.0922 56.6744 27.6328L56.6775 27.6296C56.1837 27.1702 55.8212 26.5765 55.6399 25.8889C55.3711 24.8701 55.0304 23.8701 54.6304 22.9044C54.2241 21.9199 53.7522 20.973 53.224 20.0636C52.8677 19.4479 52.7021 18.776 52.7271 18.1041C52.7521 17.4291 52.9677 16.7665 53.374 16.1791L54.6148 14.3727L54.6367 14.3384C54.8023 14.0977 54.8773 13.829 54.8617 13.5696C54.8492 13.3071 54.7492 13.0446 54.5648 12.8289C54.171 12.3664 53.7429 11.8976 53.2803 11.4195C52.8459 10.9695 52.3864 10.5257 51.9051 10.0881C51.6863 9.89126 51.4238 9.78188 51.1582 9.76313C50.8894 9.74438 50.6112 9.81626 50.3706 9.98189L48.4797 11.2882C47.8922 11.6945 47.2296 11.9101 46.5546 11.9351C45.8827 11.9601 45.2107 11.7945 44.595 11.4382C43.6887 10.9132 42.7417 10.4413 41.7572 10.035C40.7884 9.63187 39.7883 9.29436 38.7694 9.02249C38.0787 8.84123 37.4849 8.47871 37.0286 7.98803C36.5723 7.49426 36.2567 6.87238 36.1254 6.16923L35.6316 3.50661C35.5785 3.22535 35.4441 2.98472 35.2503 2.80971C35.0597 2.63783 34.8065 2.52532 34.519 2.50345C34.0502 2.46282 33.6314 2.43469 33.2626 2.41906C32.9032 2.40344 32.4813 2.39719 31.9938 2.39719C31.5094 2.39719 31.0875 2.40344 30.725 2.41906C30.3562 2.43469 29.9343 2.46282 29.4686 2.50345C29.1811 2.52845 28.9279 2.63783 28.7373 2.80971C28.5466 2.98472 28.4091 3.22535 28.356 3.50661L27.8622 6.16923C27.7309 6.87239 27.4184 7.49425 26.959 7.98803C26.5027 8.47868 25.9089 8.8412 25.2182 9.02249C24.1994 9.29125 23.1993 9.63189 22.2335 10.0319C21.249 10.4382 20.302 10.9101 19.3957 11.4382C18.78 11.7945 18.108 11.9601 17.4361 11.9351C16.7611 11.9101 16.0985 11.6913 15.511 11.2882L13.617 9.98501C13.3764 9.81938 13.1014 9.7475 12.8295 9.76625C12.5638 9.785 12.3013 9.89438 12.0825 10.0913C11.6012 10.5288 11.1418 10.9726 10.7073 11.4226C10.2729 11.8726 9.84478 12.3414 9.42906 12.832C9.24154 13.0539 9.1384 13.3133 9.1259 13.5727C9.1134 13.8352 9.18528 14.1009 9.34779 14.3384H9.34467L9.34779 14.3415L10.5698 16.1197C10.5854 16.1385 10.601 16.1604 10.6135 16.1822C11.0167 16.7698 11.2354 17.4323 11.2604 18.1073C11.2854 18.7792 11.1198 19.4511 10.7635 20.0667C10.2353 20.973 9.76654 21.9231 9.35714 22.9044C8.9571 23.8732 8.61645 24.8701 8.34768 25.8921C8.1758 26.5421 7.84139 27.1109 7.38823 27.5578C7.36635 27.5828 7.34135 27.6078 7.31322 27.6328C6.81942 28.089 6.19752 28.4047 5.49433 28.5359L3.45661 28.9141C3.17533 28.9672 2.93155 29.1078 2.75341 29.3078C2.57839 29.5047 2.46588 29.7641 2.44713 30.0516C2.42525 30.411 2.4065 30.736 2.39713 31.0267C2.39088 31.2642 2.38463 31.5892 2.38463 32.0018C2.38463 32.4144 2.38775 32.7393 2.39713 32.9769C2.4065 33.2644 2.42213 33.5926 2.44713 33.952C2.46588 34.2426 2.57527 34.502 2.75029 34.6989C2.92531 34.8958 3.16908 35.0364 3.45349 35.0895L5.49121 35.4646C6.1944 35.5958 6.81629 35.9083 7.3101 36.3677C7.80077 36.824 8.16331 37.4178 8.3446 38.1084C8.61338 39.1303 8.95404 40.1273 9.35406 41.093C9.76035 42.0774 10.2323 43.0244 10.7604 43.9306C11.1167 44.5463 11.2824 45.2182 11.2574 45.8901C11.2324 46.5651 11.0136 47.2277 10.6104 47.8152L9.34158 49.659L9.33846 49.6559C9.17906 49.8903 9.10406 50.159 9.11968 50.4216C9.13218 50.6841 9.23219 50.9466 9.41658 51.1622C9.81037 51.6247 10.2416 52.0967 10.7011 52.5748C11.1355 53.0248 11.595 53.4686 12.0763 53.9061C12.2951 54.103 12.5576 54.2124 12.8232 54.2311C13.092 54.2499 13.3702 54.178 13.6108 54.0124L15.5048 52.7092C16.0923 52.3029 16.7549 52.0873 17.4299 52.0623C18.1018 52.0373 18.7738 52.2029 19.3895 52.5592C20.2958 53.0873 21.2459 53.5561 22.2273 53.9655C23.1961 54.3686 24.193 54.7061 25.2119 54.9749C25.9026 55.1561 26.4965 55.5187 26.9528 56.0093C27.409 56.5031 27.7247 57.125 27.856 57.8281L28.3498 60.4908C28.4029 60.772 28.5373 61.0158 28.7311 61.1877C28.9217 61.3595 29.1748 61.4721 29.4624 61.4939C29.9405 61.5314 30.3656 61.5626 30.7344 61.5782Z" fill="#F3FF85"/>
</svg>
