<svg width="64" height="92" viewBox="0 0 64 92" fill="none" xmlns="http://www.w3.org/2000/svg">
<path d="M46.1653 70.7501C46.0616 70.7503 45.958 70.7416 45.8558 70.7239C45.38 70.6424 44.9561 70.3753 44.6773 69.9813C44.3984 69.5872 44.2875 69.0985 44.369 68.6227C45.501 62.0752 49.4883 55.99 53.9762 51.0898C58.7339 45.8718 61.3683 39.0632 61.3616 32.0018C61.3616 16.6314 48.3358 3.18138 32.9849 2.66036C25.1046 2.39188 17.6669 5.32124 12.0425 10.9069C6.41812 16.4926 2.43985 24.9076 2.65372 32.7867C2.83959 39.6199 5.49014 46.1554 10.1165 51.1876C14.5773 56.0557 18.531 62.1127 19.6201 68.625C19.6603 68.8607 19.6536 69.102 19.6004 69.335C19.5473 69.5681 19.4488 69.7884 19.3105 69.9834C19.1722 70.1785 18.9969 70.3443 18.7945 70.4716C18.5921 70.5988 18.3667 70.6849 18.131 70.7251C17.8953 70.7652 17.6541 70.7585 17.421 70.7053C17.1879 70.6522 16.9676 70.5537 16.7726 70.4154C16.5776 70.2771 16.4117 70.1018 16.2845 69.8994C16.1572 69.6971 16.0711 69.4716 16.031 69.2359C15.059 63.416 12.421 58.0024 8.43625 53.6506C4.23655 49.0798 1.45687 43.3862 0.435872 37.2635C-0.585127 31.1408 0.196634 24.8533 2.68591 19.1671C5.17518 13.4809 9.26451 8.64134 14.4557 5.23816C19.6468 1.83498 25.7157 0.0150435 31.9229 9.28596e-05C38.1301 -0.0148578 44.2077 1.77582 49.4152 5.15396C54.6227 8.53209 58.7353 13.3519 61.2519 19.026C63.7686 24.7002 64.5806 30.9839 63.5891 37.1114C62.5976 43.2389 59.8454 48.9458 55.6678 53.5368C51.6485 57.9244 48.9723 63.3729 47.957 69.2359C47.8848 69.6591 47.6655 70.0431 47.3376 70.3201C47.0097 70.5972 46.5945 70.7495 46.1653 70.7501Z" fill="#F3FF85"/>
<path d="M46.5335 77.7181H17.8018C16.2631 77.7181 15.7874 78.1068 14.6993 77.0188C13.6113 75.9307 13 74.455 13 72.9162C13 71.3775 13.6113 69.9018 14.6993 68.8137C15.7874 67.7257 16.2631 68.1144 17.8018 68.1144H46.5335C48.0722 68.1144 48.5479 67.7257 49.636 68.8137C50.724 69.9018 51.3353 71.3775 51.3353 72.9162C51.3353 74.455 50.724 75.9307 49.636 77.0188C48.5479 78.1068 48.0722 77.7181 46.5335 77.7181ZM17.8018 70.7548C17.2286 70.7548 16.6788 70.9825 16.2734 71.3878C15.8681 71.7932 15.6404 72.343 15.6404 72.9162C15.6404 73.4895 15.8681 74.0393 16.2734 74.4446C16.6788 74.85 17.2286 75.0777 17.8018 75.0777H46.5335C47.1067 75.0777 47.6565 74.85 48.0618 74.4446C48.4672 74.0393 48.6949 73.4895 48.6949 72.9162C48.6949 72.343 48.4672 71.7932 48.0618 71.3878C47.6565 70.9825 47.1067 70.7548 46.5335 70.7548H17.8018Z" fill="#F3FF85"/>
<path d="M44.8665 84.9445H20.1335C18.809 84.9445 18.3994 85.2639 17.4628 84.3701C16.5262 83.4763 16 82.264 16 81C16 79.736 16.5262 78.5237 17.4628 77.6299C18.3994 76.7361 18.809 77.0555 20.1335 77.0555H44.8665C46.191 77.0555 46.6006 76.7361 47.5372 77.6299C48.4738 78.5237 49 79.736 49 81C49 82.264 48.4738 83.4763 47.5372 84.3701C46.6006 85.2639 46.191 84.9445 44.8665 84.9445ZM20.1335 79.2244C19.6401 79.2244 19.1668 79.4115 18.8179 79.7445C18.4689 80.0775 18.2729 80.5291 18.2729 81C18.2729 81.4709 18.4689 81.9225 18.8179 82.2555C19.1668 82.5885 19.6401 82.7756 20.1335 82.7756H44.8665C45.3599 82.7756 45.8332 82.5885 46.1821 82.2555C46.5311 81.9225 46.7271 81.4709 46.7271 81C46.7271 80.5291 46.5311 80.0775 46.1821 79.7445C45.8332 79.4115 45.3599 79.2244 44.8665 79.2244H20.1335Z" fill="#F3FF85"/>
<path d="M42.4928 91.9445H21.5073C20.3834 91.9445 20.0359 92.2639 19.2412 91.3701C18.4465 90.4763 18 89.264 18 88C18 86.736 18.4465 85.5237 19.2412 84.6299C20.0359 83.7361 20.3834 84.0555 21.5073 84.0555H42.4928C43.6166 84.0555 43.9641 83.7361 44.7588 84.6299C45.5535 85.5237 46 86.736 46 88C46 89.264 45.5535 90.4763 44.7588 91.3701C43.9641 92.2639 43.6166 91.9445 42.4928 91.9445ZM21.5073 86.2244C21.0885 86.2244 20.687 86.4115 20.3909 86.7445C20.0948 87.0775 19.9285 87.5291 19.9285 88C19.9285 88.4709 20.0948 88.9225 20.3909 89.2555C20.687 89.5885 21.0885 89.7756 21.5073 89.7756H42.4928C42.9115 89.7756 43.313 89.5885 43.6091 89.2555C43.9051 88.9225 44.0715 88.4709 44.0715 88C44.0715 87.5291 43.9051 87.0775 43.6091 86.7445C43.313 86.4115 42.9115 86.2244 42.4928 86.2244H21.5073Z" fill="#F3FF85"/>
<path d="M37.7751 70.7494C37.2924 70.7494 36.8294 70.5577 36.4881 70.2163C36.1467 69.875 35.955 69.412 35.955 68.9293V34.2445H28.0463V68.9293C28.0463 69.412 27.8545 69.875 27.5131 70.2163C27.1718 70.5577 27.4827 70.5 27 70.5C26.5173 70.5 26.2804 70.5577 25.939 70.2163C25.5977 69.875 25.4059 69.412 25.4059 68.9293V34.2445H20.7928C19.358 34.2447 17.9552 33.8194 16.7621 33.0224C15.5689 32.2254 14.6389 31.0925 14.0897 29.7669C13.5404 28.4413 13.3966 26.9827 13.6764 25.5753C13.9562 24.168 14.647 22.8753 15.6615 21.8606C16.6761 20.8459 17.9687 20.1548 19.376 19.8748C20.7833 19.5948 22.242 19.7384 23.5676 20.2875C24.8933 20.8365 26.0264 21.7663 26.8236 22.9594C27.6208 24.1524 28.0463 25.5551 28.0463 26.9899V31.6041H32.0006H35.955V26.9865C35.9556 25.5518 36.3817 24.1496 37.1792 22.957C37.9768 21.7645 39.11 20.8352 40.4357 20.2866C41.7614 19.738 43.2199 19.5949 44.6269 19.8752C46.034 20.1555 47.3263 20.8467 48.3405 21.8614C49.3547 22.8761 50.0453 24.1687 50.325 25.5759C50.6046 26.983 50.4607 28.4415 49.9116 29.7669C49.3624 31.0923 48.4325 32.2251 47.2396 33.0221C46.0467 33.8191 44.6442 34.2445 43.2095 34.2445H38.5953V68.9293C38.5953 69.412 39.4036 69.875 39.0622 70.2163C38.7209 70.5577 38.2579 70.7494 37.7751 70.7494ZM38.5953 31.6007H43.2095C43.9244 31.6007 44.6231 31.3887 45.2175 30.9916C45.8118 30.5945 47.2751 29.03 47.5486 28.3696C47.8222 27.7092 47.8937 26.9825 47.7543 26.2814C47.6148 25.5803 47.2706 24.9363 46.7652 24.4309C46.2597 23.9254 44.6157 22.5812 43.9146 22.4418C43.2135 22.3023 42.4868 22.3739 41.8264 22.6474C41.166 22.921 39.6016 24.3842 39.2044 24.9786C38.8073 25.5729 38.5953 26.2717 38.5953 26.9865V31.6007ZM20.7928 22.3723C19.8343 22.3723 17.915 22.7531 17.2372 23.4309C16.5594 24.1087 16.1786 26.028 16.1786 26.9865C16.1786 27.9451 16.5594 28.8643 17.2372 29.5421C17.915 30.2199 19.8343 31.6007 20.7928 31.6007H25.4059V26.9865C25.405 26.0284 25.0241 25.1099 24.3467 24.4323C23.6694 23.7547 21.7509 22.3735 20.7928 22.3723Z" fill="#F3FF85"/>
</svg>
