<svg width="1440" height="803" viewBox="0 0 1440 803" fill="none" xmlns="http://www.w3.org/2000/svg">
<path d="M1204.08 0.801758C1193.38 -0.0986185 1182.43 1.11476 1171.84 3.11523L1169.73 3.52539C1160.34 5.4029 1151.19 8.40441 1142.34 12.0771C1110.47 25.2802 1081.59 44.5853 1056.86 68.6826C1038.73 86.3462 1022.83 106.652 1009.64 128.369L1009.48 128.633L1009.17 128.607C993.536 127.324 977.944 125.604 962.406 123.577H962.403C951.962 122.148 941.536 120.6 931.127 118.948C883.835 111.438 836.861 101.95 789.721 93.6953C747.649 86.3273 705.352 80.2998 662.814 76.4736C623.899 72.9745 584.828 71.2087 545.758 71.2295C506.635 71.2503 467.503 73.0569 428.553 76.748C387.717 80.6159 347.001 86.3685 306.749 94.2646C268.791 101.704 231.219 111.105 194.285 122.604C155.78 134.595 118.068 148.969 81.2314 165.389C46.4797 180.878 12.6835 198.516 -19.7725 218.375V218.376C-53.8366 239.216 -86.3455 262.584 -117.163 287.987C-146.716 312.356 -174.438 338.919 -200 367.449C-204.699 372.696 -207.164 378.523 -207.476 385.503L-207.488 385.784C-207.681 392.209 -204.638 398.284 -200.427 403.039L-200.01 403.502C-195.732 408.155 -188.19 410.943 -182.017 410.943C-175.839 410.943 -168.208 408.173 -164.027 403.507C-157.116 395.789 -150.055 388.217 -142.832 380.79C-118.285 355.548 -91.9613 332.073 -64.1992 310.423L-64.1953 310.42L-61.9658 308.719C-51.5461 300.801 -40.9386 293.132 -30.1445 285.731L-27.8291 284.149C-4.09922 267.998 20.4822 253.103 45.7334 239.457C70.0859 226.299 95.0669 214.316 120.52 203.44L120.522 203.438L123.872 202.046C140.628 195.113 157.57 188.646 174.686 182.664C209.172 170.609 244.313 160.455 279.868 152.09C314.494 143.942 349.514 137.51 384.751 132.642L384.754 132.641C408.406 129.528 432.147 127.112 455.939 125.397C499.981 122.228 544.189 121.413 588.323 122.847C631.351 124.244 674.306 127.793 716.991 133.415H716.995C733.125 135.639 749.212 138.179 765.262 140.917C803.657 147.467 841.96 155.003 880.312 161.776L887.983 163.12C920.007 168.682 952.185 173.718 984.516 177.201L985.174 177.271L984.926 177.886C978.395 194.039 973.028 210.674 968.923 227.536L968.529 229.169C961.212 259.872 957.519 291.752 957.778 323.319C958.043 355.033 962.182 387.073 970.24 417.752C978.681 449.879 992.003 480.886 1008.42 509.741C1025.14 539.144 1045.57 566.613 1068.33 591.638L1070.54 594.052C1094.44 619.996 1121.29 642.972 1149.74 663.789V663.79C1177.03 683.757 1206.12 701.235 1236.37 716.321C1268.45 732.312 1301.85 745.92 1335.96 756.923C1373.86 769.145 1412.81 778.089 1452.07 784.702C1495.72 792.053 1539.82 796.756 1584 799.404C1626.58 801.959 1669.27 802.67 1711.93 802.468C1754.63 802.265 1797.32 801.138 1840.01 799.979C1854.07 799.598 1864.52 788.967 1865.45 775.149L1865.48 774.489C1865.76 768.181 1862.44 760.921 1858.02 756.5C1853.53 752.006 1846.42 748.871 1840.03 749.043C1814.5 749.734 1788.97 750.42 1763.44 750.897C1718.24 751.749 1673.02 751.967 1627.83 750.486C1583.65 749.037 1539.49 745.93 1495.64 740.184H1495.64C1479.8 737.996 1464.01 735.46 1448.3 732.514C1396.66 722.828 1345.89 708.728 1297.32 688.613L1297.31 688.611C1287.48 684.412 1277.76 679.999 1268.14 675.331C1232.32 657.935 1198.09 637.21 1166.41 613.054L1166.4 613.05C1160.94 608.77 1155.55 604.39 1150.25 599.9L1147.98 597.969C1124.28 577.626 1102.45 555.11 1083.15 530.537L1083.14 530.53C1079.11 525.222 1075.19 519.841 1071.41 514.354C1056.49 492.702 1043.61 469.65 1033.15 445.526L1033.14 445.517C1031.07 440.451 1029.11 435.338 1027.3 430.172C1019.92 409.204 1014.71 387.515 1011.51 365.531L1011.51 365.521C1010.77 359.536 1010.15 353.534 1009.7 347.521C1007.9 323.301 1008.54 298.925 1011.52 274.825H1011.52L1011.53 274.815C1012.33 269.251 1013.25 263.707 1014.31 258.184C1018.62 235.721 1025.1 213.683 1033.74 192.509L1033.75 192.498C1035.33 188.852 1036.97 185.231 1038.69 181.647L1038.83 181.352L1039.16 181.364C1073.88 182.693 1108.49 181.218 1143.01 176.341H1143.02C1162.79 173.55 1182.38 169.39 1201.53 163.685C1211 160.863 1220.39 157.698 1229.58 154.074C1240.86 149.622 1251.38 144.881 1260.94 137.488C1263.55 135.472 1266.13 133.518 1268.45 131.232H1268.45C1270.63 129.082 1272.54 126.691 1274.41 124.239L1276.27 121.773C1279.28 117.788 1281.24 113.606 1283.15 109.024L1283.97 107.036C1285.23 103.932 1286.14 100.776 1286.65 97.4678C1287.5 92.0392 1288.3 86.655 1287.92 81.2295C1286.51 60.6492 1277.77 41.5628 1263.42 26.7285C1260.04 23.2446 1256.21 20.2254 1252.3 17.3047L1250.63 16.0586C1247.78 13.9572 1244.74 12.1096 1241.55 10.5869C1229.47 4.83094 1217.43 1.92454 1204.08 0.801758ZM1188.16 51.8525C1193.66 51.3668 1199.18 51.314 1204.69 51.7939L1204.71 51.7959L1204.73 51.7998C1208.76 52.5313 1212.71 53.5562 1216.57 54.9268L1216.6 54.9375L1216.63 54.9512C1218.94 56.1143 1221.16 57.429 1223.3 58.8848L1223.32 58.9014L1223.34 58.9209C1225.71 60.9828 1227.93 63.2073 1229.98 65.583L1230 65.6035L1230.01 65.626C1231.84 68.2734 1233.47 71.0424 1234.89 73.9268L1234.9 73.9531L1234.91 73.9814C1235.77 76.405 1236.47 78.8674 1236.99 81.3838L1237 81.4199L1237 81.457C1237.1 83.1766 1237.12 84.8926 1237.03 86.6152L1237.03 86.6572L1237.02 86.6992C1236.76 87.8889 1236.44 89.0613 1236.07 90.2168L1236.06 90.2607L1236.04 90.3008C1235.5 91.3062 1234.92 92.2794 1234.31 93.2344L1234.28 93.2695L1234.25 93.3008C1232.98 94.6921 1231.64 95.9931 1230.23 97.2344L1230.21 97.2549L1230.18 97.2725C1225.92 100.181 1221.35 102.588 1216.66 104.71L1216.65 104.715L1216.64 104.718C1188.86 115.96 1159.22 122.991 1129.61 127.202L1129.04 127.283V127.267C1117.77 128.665 1106.45 129.656 1095.11 130.26C1086.84 130.702 1078.55 130.941 1070.27 131.009L1069.22 131.018L1069.88 130.197C1082.48 114.36 1096.78 99.92 1112.63 87.3164L1112.65 87.3076C1126.74 76.7297 1141.95 67.4752 1158.07 60.2959L1158.08 60.292L1158.09 60.2881L1159.84 59.6006C1168.64 56.209 1177.71 53.5392 1187.03 51.96L1187.04 51.957L1187.06 51.9561L1188.16 51.8525Z" stroke="#F3FF85"/>
</svg>
