<svg width="1440" height="363" viewBox="0 0 1440 363" fill="none" xmlns="http://www.w3.org/2000/svg">
<path d="M-608.634 149.059C-607.218 141.555 -603.617 134.075 -597.135 129.624C-590.547 125.104 -583.301 123.152 -575.259 124.019C-516.47 130.32 -460.371 152.265 -407.81 178.451C-356.457 204.034 -307.294 233.817 -255.554 258.652C-228.459 271.655 -200.621 283.25 -171.768 291.741C-146.183 298.658 -119.947 302.89 -93.4397 303.513C-66.5216 303.342 -39.7986 299.525 -13.7086 292.959C16.0052 284.807 44.7095 273.369 72.6133 260.357C102.445 246.446 131.415 230.766 160.278 214.958C189.549 198.922 218.732 182.707 248.627 167.857C278.034 153.247 308.18 139.941 339.445 129.81C378.279 117.225 418.495 108.95 459.099 104.89C499.962 100.808 541.254 100.697 582.237 102.878C621.328 104.957 660.254 109.437 698.961 115.21C739.523 121.259 779.844 128.789 820.146 136.327C862.08 144.169 904.02 152.054 946.198 158.477C988.346 164.896 1030.76 169.851 1073.37 171.745C1082.11 172.135 1090.87 172.382 1099.62 172.498C1140.94 172.605 1182.17 169.375 1222.74 161.305C1232.55 159.354 1242.28 157.119 1251.96 154.644C1280.86 146.757 1309.12 136.453 1336.07 123.341C1343.01 119.968 1349.85 116.39 1356.59 112.649C1381.53 98.1521 1404.9 81.0242 1425.81 61.1429C1440.93 46.0217 1454.57 29.4721 1466.4 11.6394C1470.29 5.78062 1479.03 1.56821 1485.77 0.705799C1493.05 -0.217629 1502.23 1.98043 1507.87 6.86785C1513.53 11.7761 1518.16 18.5472 1518.79 26.2369L1518.73 34.1495C1517.96 39.4219 1515.93 44.1455 1512.64 48.3244C1495.44 74.2484 1474.3 97.2683 1450.95 117.76C1427.75 138.114 1401.92 154.873 1374.82 169.538C1321.75 198.26 1262.43 215.766 1202.89 224.592C1171.19 229.29 1139.17 231.165 1107.14 231.053C1067.56 230.921 1028.17 228.448 988.873 223.825C914.038 215.019 840.194 199.727 766.11 186.285C697.882 173.904 629.132 163.261 559.744 160.645C552.879 160.387 546.013 160.218 539.142 160.12C497.987 159.982 456.76 162.975 416.292 170.642C405.742 172.642 395.254 174.966 384.847 177.6C354.641 185.819 325.405 197.009 296.957 210.038C268.565 223.041 240.965 237.688 213.556 252.624C186.023 267.627 158.666 282.952 130.795 297.316C103.537 311.362 75.7443 324.515 46.9764 335.187C16.9627 346.319 -14.3668 355.016 -46.1359 359.275C-79.2351 363.708 -113.355 363.221 -146.29 357.646C-180.139 351.916 -213.291 341.303 -244.939 328.128C-275.073 315.585 -304.135 300.614 -332.858 285.156C-362.058 269.444 -390.956 253.162 -420.48 238.054C-449.432 223.236 -479.04 209.505 -509.831 198.931C-516.246 196.728 -522.713 194.679 -529.224 192.772C-547.057 187.957 -565.21 184.39 -583.586 182.424C-590.948 181.636 -598.633 176.766 -603.021 170.925C-607.364 165.137 -609.992 156.281 -608.627 149.049L-608.634 149.059Z" stroke="#F3FF85"/>
</svg>
