<svg width="1440" height="554" viewBox="0 0 1440 554" fill="none" xmlns="http://www.w3.org/2000/svg">
<path d="M1828.66 0.819964C1873.86 -0.190988 1919.07 1.23868 1964.15 4.45923C2009.91 7.72856 2055.54 12.865 2101.02 19.2278C2146.59 25.5993 2192.02 33.2091 2237.35 41.4265C2282.69 49.6442 2327.95 58.4808 2373.21 67.3238L2373.24 67.331L2373.28 67.3325C2377.61 67.5137 2381.6 68.9526 2385.26 71.6546C2386.05 72.4339 2386.84 73.2119 2387.63 73.9895C2388.43 74.7714 2389.23 75.5535 2390.02 76.3365C2394.53 81.6285 2396.32 89.3476 2396.32 96.7959L2396.32 97.0255L2396.33 97.0347C2396.26 104.08 2392.81 111.981 2388.48 116.716C2386.48 118.897 2383.54 121.1 2380.39 122.617C2377.22 124.139 2373.93 124.936 2371.21 124.406L2371.21 124.406L2354.86 121.211C2311.52 112.755 2268.16 104.373 2224.72 96.592C2181.29 88.8177 2137.78 81.6506 2094.12 75.6289C2050.39 69.5982 2006.51 64.7182 1962.52 61.5614C1918.96 58.4326 1875.28 56.9854 1831.6 57.7771C1793.91 58.4589 1756.23 60.8919 1718.68 65.2603L1718.68 65.2601C1699.32 67.6433 1680.01 70.5402 1660.76 74.0152C1624.99 80.4749 1589.43 88.8979 1554.33 99.5423C1520.54 109.783 1487.2 122.117 1454.53 136.676L1454.52 136.677C1437.37 144.507 1420.41 152.943 1403.71 162.053C1373.41 178.575 1344 197.306 1315.63 218.106C1290.72 236.366 1266.57 256.002 1242.7 276.073L1242.7 276.074C1238.55 279.584 1234.4 283.095 1230.26 286.625C1191.03 320.074 1152.23 354.27 1111.81 385.67C1074.12 414.957 1034.84 441.82 992.966 461.657C970.588 472.263 947.771 481.388 924.286 487.659C898.363 494.576 871.7 498.26 845.197 498.776C815.941 499.343 786.957 495.465 758.258 489.271C731.265 483.446 704.751 474.846 678.851 464.31C627.093 443.247 578.633 413.468 529.094 386.248L529.092 386.246L525.857 384.498C518.305 380.428 510.723 376.442 503.081 372.605C473.095 357.549 442.07 344.522 409.848 337.461L408.312 337.129L408.299 337.127L406.207 336.751C384.587 332.949 362.593 331.818 340.731 334.076L340.722 334.077L340.714 334.078C324.527 336.331 308.529 340.527 293.142 347.073L293.122 347.082C281.515 352.618 270.414 359.525 260.06 367.866L260.051 367.874L260.043 367.881C248.371 378.214 238.067 390.369 228.578 403.387L228.572 403.395C221.888 412.981 215.568 422.894 209.31 432.85L201.272 445.657C195.903 454.182 190.482 462.654 184.815 470.902C168.712 494.336 151.333 515.906 129.147 531.292C104.987 548.051 75.9388 555.26 48.2887 551.989C18.3217 548.443 -9.51639 535.562 -35.7002 518.587C-59.683 503.034 -81.8456 483.883 -103.269 463.865L-103.288 463.847L-103.309 463.832L-103.962 463.321C-107.175 460.726 -109.711 457.39 -111.58 453.303C-112.313 450.979 -113.048 448.655 -113.782 446.33C-115.507 438.933 -113.725 430.955 -110.488 424.408L-110.488 424.407C-107.503 418.364 -101.233 413.484 -95.5845 411.886C-92.8621 411.116 -89.3924 410.936 -86.0274 411.489C-82.66 412.042 -79.4503 413.32 -77.205 415.415C-51.7393 439.209 -25.0961 461.98 4.36424 478.657L4.37092 478.661L4.37764 478.664C17.3064 485.458 30.7626 490.926 44.7258 494.105L44.7403 494.108L44.7549 494.111C53.4924 495.563 62.3216 496.032 71.1542 495.309L71.1728 495.308L71.1915 495.305C78.5355 494.134 85.7478 492.123 92.7678 489.269L92.7846 489.263L92.8006 489.255C100.09 485.653 107.019 481.181 113.563 475.955L113.573 475.946L113.583 475.937C124.293 466.382 133.742 455.082 142.465 443.108L142.471 443.099C144.229 440.578 145.974 438.042 147.685 435.482C167.581 405.712 185.083 373.789 207.672 346.735L207.671 346.734C232.893 316.531 265.051 295.963 299.597 285.26C317.263 279.791 335.597 277.133 353.791 276.157C370.327 275.271 386.907 276.269 403.278 278.839L403.278 278.84C441.768 284.89 478.477 298.528 514.137 316.167C551.058 334.431 586.671 355.941 622.98 375.868L622.983 375.869C633.074 381.329 643.222 386.647 653.481 391.678C693.201 411.158 734.492 426.748 777.031 435.549L777.031 435.55L777.041 435.551C808.915 441.515 841.355 443.468 873.633 440.063L873.645 440.062C880.467 439.168 887.27 438.063 894.043 436.707C918.644 431.783 942.759 423.778 966.166 413.473L966.174 413.47C979.079 407.517 991.766 400.911 1004.23 393.738C1028.38 379.834 1051.67 363.917 1074.36 346.929C1096.63 330.256 1118.32 312.54 1139.78 294.477L1139.78 294.476C1142.92 291.825 1146.05 289.166 1149.18 286.502L1158.57 278.498C1189.67 251.893 1220.59 224.985 1252.32 199.438C1283.54 174.293 1315.64 150.768 1349.22 130.322C1386.73 107.48 1425.75 88.249 1465.55 71.8348C1503.71 56.0976 1542.71 43.3539 1582.17 33.2594C1621.66 23.1548 1661.6 15.6937 1701.72 10.5276C1743.93 5.09131 1786.25 1.76861 1828.66 0.819964Z" stroke="#F3FF85"/>
</svg>
