<svg width="645" height="240" viewBox="0 0 645 240" fill="none" xmlns="http://www.w3.org/2000/svg">
<path d="M245.788 89.3321C253.994 89.3321 260.677 94.8908 261.439 104.1L281.631 103.093C280.498 83.5269 263.329 73.4348 246.043 73.4348C228.757 73.4348 213.102 82.8997 213.102 101.449C213.102 114.703 221.178 124.674 240.489 128.455L250.46 130.479C257.022 131.868 260.807 134.896 260.807 139.944C260.807 146.511 254.751 150.672 246.675 150.672C237.08 150.672 229.51 144.486 229.134 134.641L209.447 135.904C210.078 156.097 228.251 166.565 246.549 166.565C263.714 166.565 280.874 157.36 280.874 138.551C280.874 124.791 271.79 114.824 252.354 111.043L242.388 109.019C236.453 107.756 232.923 104.857 232.923 99.8136C232.923 93.5022 238.598 89.3321 245.792 89.3321H245.788Z" fill="#FFFCEC"/>
<path d="M335.306 148.397C320.538 148.397 309.81 136.406 309.81 120.006C309.81 103.607 320.538 91.3566 335.306 91.3566C347.293 91.3566 357.138 99.6795 358.523 111.043L378.465 109.274C377.202 88.4454 358.903 73.2964 335.306 73.2964C308.676 73.2964 289.241 92.9831 289.241 120.002C289.241 147.021 308.676 166.695 335.306 166.695C358.903 166.695 377.202 150.91 378.594 129.333L358.527 127.823C357.268 139.68 347.423 148.397 335.31 148.397H335.306Z" fill="#FFFCEC"/>
<path d="M432.663 73.3008C405.908 73.3008 386.221 92.9875 386.221 120.007C386.221 147.025 405.908 166.699 432.663 166.699C459.418 166.699 479.105 147.013 479.105 120.007C479.105 93.0005 459.422 73.3008 432.663 73.3008ZM432.663 148.397C417.773 148.397 406.794 136.406 406.794 120.007C406.794 103.607 417.773 91.3567 432.663 91.3567C447.552 91.3567 458.535 103.473 458.535 120.007C458.535 136.54 447.556 148.397 432.663 148.397Z" fill="#FFFCEC"/>
<path d="M545.164 128.204C545.164 140.195 538.096 147.635 526.861 147.635C515.627 147.635 508.689 140.195 508.689 128.204V75.827H488.12V128.831C488.12 150.914 503.891 165.938 526.861 165.938C549.831 165.938 565.608 150.914 565.608 128.831V75.827H545.164V128.204Z" fill="#FFFCEC"/>
<path d="M573.347 75.827V93.1216H598.713V164.169H619.287V93.1216H644.653V75.827H573.347Z" fill="#FFFCEC"/>
<path d="M118.146 0L0 73.0196L39.5076 136.946L0 161.361L48.6004 240L166.747 166.98L127.239 103.054L166.747 78.6345L118.146 0ZM142.942 73.0196L113.834 91.0063L34.2041 72.2063L112.523 23.8006L142.938 73.0153L142.942 73.0196ZM93.0308 103.867L54.2196 127.854L30.2331 89.0424L93.0308 103.867ZM23.8049 166.98L52.9089 148.994L132.538 167.794L54.2196 216.199L23.8049 166.985V166.98ZM73.716 136.133L112.527 112.147L136.514 150.958L73.716 136.133Z" fill="#FFFCEC"/>
</svg>
