<svg width="64" height="38" viewBox="0 0 64 38" fill="none" xmlns="http://www.w3.org/2000/svg">
<path d="M15.6339 19.3495C20.254 19.3495 23.732 12.5239 23.732 8.09819C23.732 3.63311 20.0989 0 15.6339 0C11.1688 0 7.5332 3.63311 7.5332 8.09819C7.53566 12.5239 11.0137 19.3495 15.6339 19.3495ZM15.6339 2.46146C18.7427 2.46146 21.2706 4.98937 21.2706 8.09819C21.2706 11.4064 18.5408 16.888 15.6339 16.888C12.7269 16.888 9.99466 11.4039 9.99466 8.09819C9.99712 4.98937 12.525 2.46146 15.6339 2.46146Z" fill="#F3FF85"/>
<path d="M19.064 19.7783H12.2039C5.47674 19.7783 0 25.2526 0 31.9822V35.8295C0 36.5088 0.551366 37.0602 1.23073 37.0602H30.0396C30.719 37.0602 31.2703 36.5088 31.2703 35.8295V31.9822C31.2703 25.2526 25.7936 19.7783 19.064 19.7783ZM28.8089 34.5987H2.46146V31.9822C2.46146 26.6089 6.833 22.2398 12.2039 22.2398H19.064C24.4373 22.2398 28.8089 26.6089 28.8089 31.9822V34.5987Z" fill="#F3FF85"/>
<path d="M48.3643 19.3495C52.9845 19.3495 56.4625 12.5239 56.4625 8.09819C56.4625 3.63311 52.8294 0 48.3643 0C43.8992 0 40.2637 3.63311 40.2637 8.09819C40.2637 12.5239 43.7442 19.3495 48.3643 19.3495ZM48.3643 2.46146C51.4731 2.46146 54.0011 4.98937 54.0011 8.09819C54.0011 11.4064 51.2713 16.888 48.3643 16.888C45.4549 16.888 42.7251 11.4039 42.7251 8.09819C42.7251 4.98937 45.2555 2.46146 48.3643 2.46146Z" fill="#F3FF85"/>
<path d="M51.7944 19.7783H44.9368C38.2072 19.7783 32.7305 25.2551 32.7305 31.9822V35.8295C32.7305 36.5088 33.2818 37.0602 33.9612 37.0602H62.7701C63.4494 37.0602 64.0008 36.5088 64.0008 35.8295V31.9822C64.0008 25.2526 58.5241 19.7783 51.7944 19.7783ZM61.5393 34.5987H35.1919V31.9822C35.1919 26.6089 39.5635 22.2398 44.9368 22.2398H51.7944C57.1678 22.2398 61.5393 26.6089 61.5393 31.9822V34.5987Z" fill="#F3FF85"/>
</svg>
