<svg width="64" height="64" viewBox="0 0 64 64" fill="none" xmlns="http://www.w3.org/2000/svg">
<path d="M61.8924 20.6014C61.8814 20.5683 61.8703 20.5241 61.8483 20.491C57.2138 8.51862 45.5835 0 32 0C18.4166 0 6.78621 8.50759 2.15172 20.48C2.12965 20.5241 2.10759 20.5683 2.09655 20.6234C0.750345 24.1545 0 27.9945 0 32C0 36.0166 0.750345 39.8566 2.10759 43.3986C2.11862 43.4317 2.12965 43.4648 2.15172 43.4979C6.77517 55.4814 18.4055 64 32 64C45.5835 64 57.2138 55.4814 61.8483 43.509C61.8703 43.4648 61.8814 43.4317 61.8924 43.3876C63.2497 39.8455 64 36.0166 64 32C64 27.9834 63.2497 24.1434 61.8924 20.6014ZM59.2 19.8621H45.8262C44.4138 12.2814 41.7214 6.22345 38.2786 2.88C47.6359 4.88828 55.371 11.3103 59.2 19.8621ZM44.6897 32C44.6897 35.4648 44.4248 38.8083 43.9283 41.931H20.0717C19.5862 38.8083 19.3103 35.4648 19.3103 32C19.3103 28.5352 19.5752 25.1917 20.0717 22.069H43.9393C44.4248 25.1917 44.6897 28.5352 44.6897 32ZM32 2.2069C37.0538 2.2069 41.5228 9.5669 43.5421 19.8621H20.4579C22.4772 9.5669 26.9462 2.2069 32 2.2069ZM25.7324 2.88C22.2897 6.22345 19.5862 12.2814 18.1738 19.8621H4.8C8.62897 11.3103 16.3641 4.88828 25.7324 2.88ZM2.2069 32C2.2069 28.5131 2.81379 25.1807 3.91724 22.069H17.8097C17.3462 25.1807 17.1034 28.5131 17.1034 32C17.1034 35.4869 17.3572 38.8193 17.8097 41.931H3.91724C2.81379 38.8193 2.2069 35.4869 2.2069 32ZM4.8 44.1379H18.1738C19.5862 51.7186 22.2786 57.7766 25.7214 61.12C16.3641 59.1117 8.62897 52.6897 4.8 44.1379ZM32 61.7931C26.9462 61.7931 22.4772 54.4331 20.4579 44.1379H43.5421C41.5228 54.4331 37.0538 61.7931 32 61.7931ZM38.2676 61.12C41.7103 57.7655 44.4138 51.7186 45.8152 44.1379H59.189C55.371 52.6897 47.6359 59.1117 38.2676 61.12ZM60.0828 41.931H46.1903C46.6538 38.8193 46.8966 35.4869 46.8966 32C46.8966 28.5131 46.6428 25.1807 46.1903 22.069H60.0828C61.1862 25.1807 61.7931 28.5131 61.7931 32C61.7931 35.4869 61.1862 38.8193 60.0828 41.931Z" fill="#F3FF85"/>
</svg>
