<svg width="64" height="64" viewBox="0 0 64 64" fill="none" xmlns="http://www.w3.org/2000/svg">
<path d="M60.4873 17.4575C60.2207 16.9349 59.5702 16.7323 59.0476 16.9989C58.5251 17.2655 58.3118 17.9161 58.5891 18.4386C60.7219 22.5869 61.8523 27.2791 61.8523 31.9924C61.8523 48.4579 48.4581 61.852 31.9927 61.852C15.5273 61.852 2.13315 48.4579 2.13315 31.9924C2.13315 15.527 15.5273 2.13288 31.9927 2.13288C36.7062 2.13288 41.3983 3.26324 45.5466 5.39607C46.0691 5.66267 46.7089 5.46005 46.9862 4.93751C47.2635 4.41496 47.0502 3.77514 46.5277 3.49783C42.0701 1.20503 37.047 0 31.9924 0C14.3537 0 0 14.3537 0 31.9924C0 49.631 14.3537 63.9848 31.9924 63.9848C49.631 63.9848 63.9848 49.631 63.9848 31.9924C63.9848 26.9376 62.7801 21.9149 60.4873 17.4575Z" fill="#F3FF85"/>
<path d="M43.8716 15.5482C44.1915 15.0576 44.0529 14.3965 43.5623 14.0766C40.1178 11.8478 36.1189 10.6641 32.0021 10.6641C20.2398 10.6641 10.6738 20.23 10.6738 31.9923C10.6738 43.7546 20.2398 53.3206 32.0021 53.3206C43.7644 53.3206 53.3303 43.7546 53.3303 31.9923C53.3303 27.8653 52.1466 23.8664 49.9178 20.4321C49.5979 19.9415 48.9367 19.7922 48.4462 20.1228C47.9557 20.4427 47.8064 21.1039 48.137 21.5944C50.1418 24.687 51.2082 28.2915 51.2082 32.0026C51.2082 42.5923 42.6025 51.198 32.0128 51.198C21.4231 51.198 12.8174 42.5923 12.8174 32.0026C12.8174 21.4129 21.4019 12.7963 31.9916 12.7963C35.7027 12.7963 39.2965 13.8627 42.3998 15.8675C42.8904 16.1875 43.5515 16.0488 43.8714 15.5583L43.8716 15.5482Z" fill="#F3FF85"/>
<path d="M31.9931 23.461C32.9422 23.461 33.8487 23.6103 34.7018 23.9089C35.2564 24.1009 35.8642 23.8023 36.0562 23.2478C36.2482 22.6932 35.9495 22.0854 35.395 21.8934C34.3179 21.5202 33.1662 21.3389 31.9825 21.3389C26.1065 21.3389 21.3184 26.127 21.3184 32.003C21.3184 37.8789 26.1065 42.6671 31.9825 42.6671C37.8584 42.6671 42.6466 37.8789 42.6466 32.003C42.6466 30.8193 42.4547 29.6675 42.0921 28.5905C41.9001 28.0359 41.2923 27.7373 40.7377 27.9293C40.1832 28.1213 39.8846 28.7291 40.0765 29.2837C40.3751 30.1368 40.5244 31.0539 40.5244 31.9924C40.5244 36.6952 36.696 40.5237 31.9931 40.5237C27.2903 40.5237 23.4618 36.6952 23.4618 31.9924C23.4618 27.2895 27.2902 23.461 31.9931 23.461Z" fill="#F3FF85"/>
<path d="M46.9224 15.5587L31.2358 31.2454C30.8199 31.6613 30.8199 32.3331 31.2358 32.749C31.449 32.9623 31.7156 33.0583 31.9929 33.0583C32.2702 33.0583 32.5368 32.9516 32.7501 32.749L48.4368 17.0623H55.4645C55.7525 17.0623 56.0191 16.945 56.2217 16.7531L63.6869 9.28784C63.9962 8.97858 64.0815 8.52002 63.9215 8.12547C63.7616 7.73091 63.367 7.46429 62.9404 7.46429H56.542V1.06581C56.542 0.639249 56.286 0.244694 55.8808 0.0847147C55.4755 -0.0859113 55.0276 0.0100624 54.7184 0.319325L47.2532 7.78455C47.0505 7.98718 46.9439 8.25378 46.9439 8.54173V15.5695L46.9224 15.5587ZM55.8912 9.59744H60.3381L55.0061 14.9295H50.5592L55.8912 9.59744ZM49.0553 8.96825L54.3873 3.63619V8.08311L49.0553 13.4152V8.96825Z" fill="#F3FF85"/>
</svg>
